<svg width="25" height="24" viewBox="0 0 25 24" fill="none" xmlns="http://www.w3.org/2000/svg">
<path d="M19.2498 0C16.758 0 14.6316 1.62588 13.835 3.80296H3.782C3.55931 3.80296 3.37854 4.0037 3.37696 4.22619L3.28124 18.4349H0.415717C0.192037 18.4349 0 18.5969 0 18.821V20.6241C0.00514205 22.3216 1.34208 23.716 3.03778 23.7928V23.8017H15.5433V23.7898C15.6446 23.7936 15.6863 23.8017 15.7504 23.8017H15.7591C17.5141 23.7989 18.9355 22.3753 18.9355 20.6203V11.5038C19.0368 11.5094 19.144 11.5123 19.2488 11.5123C22.4197 11.5123 25 8.92704 25 5.75596C25 2.58508 22.4209 0 19.2498 0ZM3.19185 22.9916H3.18928C1.87903 22.9898 0.816008 21.9304 0.810075 20.6199V19.245H12.5562V20.6142C12.5568 21.4595 12.8944 22.2697 13.494 22.8656C13.5365 22.9081 13.5893 22.941 13.6338 22.9916H3.19185ZM18.1254 20.6199C18.1256 21.928 17.0666 22.989 15.7587 22.9916H15.751C14.4378 22.9892 13.3728 21.9276 13.3662 20.6146V18.821C13.3696 18.7174 13.33 18.6171 13.2567 18.5439C13.1833 18.4707 13.083 18.4314 12.9796 18.4349H4.09132L4.18427 4.61304H13.6101C13.5383 4.98386 13.5011 5.36042 13.4991 5.73796C13.4984 6.53637 13.6649 7.32588 13.988 8.05585H10.1623C9.93845 8.05585 9.75729 8.23721 9.75729 8.46089C9.75729 8.68457 9.93845 8.86593 10.1623 8.86593H14.4275C15.2631 10.1799 16.5988 11.096 18.1254 11.4026V20.6199ZM19.2498 10.7024C16.5213 10.7024 14.3092 8.49056 14.3094 5.76189C14.3094 3.03323 16.5213 0.821348 19.25 0.821348C21.9784 0.821348 24.1903 3.03343 24.1903 5.76189C24.1874 8.48917 21.9772 10.6995 19.2498 10.7024Z" fill="white"/>
</svg>
